<?xml version="1.0" standalone="no"?>
<!DOCTYPE svg PUBLIC "-//W3C//DTD SVG 20010904//EN"
 "http://www.w3.org/TR/2001/REC-SVG-20010904/DTD/svg10.dtd">
<svg version="1.0" xmlns="http://www.w3.org/2000/svg"
 width="225.000000pt" height="225.000000pt" viewBox="0 0 225.000000 225.000000"
 preserveAspectRatio="xMidYMid meet">
<metadata>
Created by potrace 1.14, written by Peter Selinger 2001-2017
</metadata>
<g transform="translate(0.000000,225.000000) scale(0.100000,-0.100000)"
fill="#000000" stroke="none">
<path d="M685 1621 c-36 -16 -60 -51 -60 -91 0 -44 18 -68 63 -87 73 -30 149
46 119 120 -8 17 -21 38 -29 44 -20 17 -69 24 -93 14z"/>
<path d="M1490 1618 c-14 -7 -33 -30 -43 -50 -16 -33 -17 -40 -3 -73 21 -49
72 -71 119 -52 45 19 62 43 62 88 0 68 -76 117 -135 87z"/>
<path d="M1040 1542 c-60 -33 -93 -84 -98 -151 -7 -100 44 -141 176 -141 137
0 192 36 192 124 0 62 -23 109 -74 150 -48 39 -142 48 -196 18z"/>
<path d="M910 296 l0 -46 -64 0 c-36 0 -76 -4 -90 -10 -33 -12 -43 -52 -22
-85 14 -21 24 -25 68 -25 l52 0 -22 -20 c-31 -29 -29 -75 4 -97 27 -17 28 -17
123 32 52 28 104 58 113 68 25 24 22 60 -8 88 -31 29 -54 71 -54 98 0 20 -8
24 -67 36 l-33 7 0 -46z"/>
<path d="M1273 329 c-23 -7 -33 -16 -33 -30 0 -27 -23 -69 -54 -98 -28 -27
-33 -58 -13 -83 6 -9 56 -40 109 -68 91 -48 99 -51 125 -38 38 18 44 67 12 97
l-23 21 52 0 c44 0 54 4 68 25 21 33 11 73 -22 85 -14 6 -54 10 -89 10 l-64 0
-3 42 c-3 47 -13 52 -65 37z"/>
</g>
</svg>
